<svg xmlns="http://www.w3.org/2000/svg" width="192" height="192" fill="#000000" viewBox="0 0 256 256"><rect width="256" height="256" fill="none"></rect><line x1="24.07031" y1="56.00094" x2="40.07031" y2="56.00094" fill="none" stroke="#000000" stroke-linecap="round" stroke-linejoin="round" stroke-width="16"></line><line x1="120.07031" y1="56.00094" x2="136.07031" y2="56.00094" fill="none" stroke="#000000" stroke-linecap="round" stroke-linejoin="round" stroke-width="16"></line><line x1="24.07031" y1="136.00094" x2="48.07031" y2="136.00094" fill="none" stroke="#000000" stroke-linecap="round" stroke-linejoin="round" stroke-width="16"></line><line x1="112.07031" y1="136.00094" x2="136.07031" y2="136.00094" fill="none" stroke="#000000" stroke-linecap="round" stroke-linejoin="round" stroke-width="16"></line><line x1="168.07031" y1="104.00094" x2="240.07031" y2="104.00094" fill="none" stroke="#000000" stroke-linecap="round" stroke-linejoin="round" stroke-width="16"></line><line x1="168.07031" y1="136.00094" x2="240.07031" y2="136.00094" fill="none" stroke="#000000" stroke-linecap="round" stroke-linejoin="round" stroke-width="16"></line><line x1="72.07031" y1="168.00094" x2="240.07031" y2="168.00094" fill="none" stroke="#000000" stroke-linecap="round" stroke-linejoin="round" stroke-width="16"></line><line x1="72.07031" y1="200.00094" x2="240.07031" y2="200.00094" fill="none" stroke="#000000" stroke-linecap="round" stroke-linejoin="round" stroke-width="16"></line><polyline points="40.07 136.001 40.07 56.001 80.07 120.001 120.07 56.001 120.07 136.001" fill="none" stroke="#000000" stroke-linecap="round" stroke-linejoin="round" stroke-width="16"></polyline><line x1="24.07031" y1="56.00094" x2="40.07031" y2="56.00094" fill="none" stroke="#000000" stroke-linecap="round" stroke-linejoin="round" stroke-width="16"></line><line x1="120.07031" y1="56.00094" x2="136.07031" y2="56.00094" fill="none" stroke="#000000" stroke-linecap="round" stroke-linejoin="round" stroke-width="16"></line><line x1="24.07031" y1="136.00094" x2="48.07031" y2="136.00094" fill="none" stroke="#000000" stroke-linecap="round" stroke-linejoin="round" stroke-width="16"></line><line x1="112.07031" y1="136.00094" x2="136.07031" y2="136.00094" fill="none" stroke="#000000" stroke-linecap="round" stroke-linejoin="round" stroke-width="16"></line><line x1="168.07031" y1="104.00094" x2="240.07031" y2="104.00094" fill="none" stroke="#000000" stroke-linecap="round" stroke-linejoin="round" stroke-width="16"></line><line x1="168.07031" y1="136.00094" x2="240.07031" y2="136.00094" fill="none" stroke="#000000" stroke-linecap="round" stroke-linejoin="round" stroke-width="16"></line><line x1="72.07031" y1="168.00094" x2="240.07031" y2="168.00094" fill="none" stroke="#000000" stroke-linecap="round" stroke-linejoin="round" stroke-width="16"></line><line x1="72.07031" y1="200.00094" x2="240.07031" y2="200.00094" fill="none" stroke="#000000" stroke-linecap="round" stroke-linejoin="round" stroke-width="16"></line><polyline points="40.07 136.001 40.07 56.001 80.07 120.001 120.07 56.001 120.07 136.001" fill="none" stroke="#000000" stroke-linecap="round" stroke-linejoin="round" stroke-width="16"></polyline></svg>