<?xml version="1.0" encoding="UTF-8"?>
<svg width="24px" height="24px" viewBox="0 0 24 24" version="1.1" xmlns="http://www.w3.org/2000/svg" xmlns:xlink="http://www.w3.org/1999/xlink">
    <title>icon-external-24</title>
    <g id="Page-1" stroke="none" stroke-width="1" fill="none" fill-rule="evenodd">
        <g id="Helena-Zhang-2020" transform="translate(-24.000000, -834.000000)" fill="#000000">
            <g id="Group-15" transform="translate(24.000000, 444.000000)">
                <g id="Group-7-Copy-5" transform="translate(0.000000, 390.000000)">
                    <g id="icon-external-24">
                        <path d="M5.10555,5.1063 C8.91405,1.2978 15.08655,1.2978 18.89505,5.1063 C22.70205,8.9133 22.70205,15.0858 18.89505,18.8943 C15.08655,22.7028 8.91405,22.7028 5.10555,18.8943 C1.29855,15.0858 1.29855,8.9133 5.10555,5.1063 Z M14.6243,8.624925 L10.125,8.625 L10.0232294,8.63184662 C9.65715388,8.68150904 9.375,8.99530423 9.375,9.375 L9.375,9.375 L9.38184662,9.47677056 C9.43150904,9.84284612 9.74530423,10.125 10.125,10.125 L10.125,10.125 L12.813,10.125 L8.84466991,14.0946699 L8.77205176,14.1787883 C8.5541973,14.4723998 8.57840335,14.8890635 8.84466991,15.1553301 C9.13756313,15.4482233 9.61243687,15.4482233 9.90533009,15.1553301 L9.90533009,15.1553301 L13.875,11.185 L13.875,13.875 L13.8818466,13.9767706 C13.931509,14.3428461 14.2453042,14.625 14.625,14.625 C15.0392136,14.625 15.375,14.2892136 15.375,13.875 L15.375,13.875 L15.375,9.375 L15.3681534,9.27322944 C15.3627062,9.23307689 15.3540814,9.19393395 15.3427252,9.15684446 C15.3408799,9.15075442 15.3389554,9.14468322 15.3366971,9.13773953 C15.3269466,9.10847789 15.315442,9.08001812 15.3026949,9.05322959 C15.2985192,9.04443437 15.2941626,9.03570362 15.289329,9.02658175 C15.2779723,9.00497247 15.2655922,8.98398514 15.2524273,8.96383021 C15.2247491,8.92168892 15.1923834,8.88172319 15.1553301,8.84466991 L15.1563,8.844925 L15.1553301,8.84466991 L15.0764416,8.77596775 C15.0661291,8.76817572 15.0556612,8.76068532 15.0453291,8.7537629 L15.0453291,8.7537629 L14.9940453,8.72186081 C14.9796244,8.7137019 14.9649909,8.70605843 14.9505328,8.69913984 C14.9325139,8.690445 14.9140942,8.68244952 14.8947519,8.67498933 C14.8844565,8.67102848 14.8740913,8.66730301 14.8642836,8.66398031 C14.8422835,8.65657935 14.8198272,8.65017085 14.796367,8.64473472 C14.7847261,8.64201468 14.7730328,8.63957582 14.7621551,8.63751238 L14.7621551,8.63751238 L14.7013,8.628925 L14.7003,8.628925 L14.6944695,8.62817463 L14.6913,8.627925 L14.6993,8.628925 L14.6243,8.624925 Z" id="Combined-Shape"></path>
                    </g>
                </g>
            </g>
        </g>
    </g>
</svg>