<?xml version="1.0" encoding="UTF-8"?>
<svg width="24px" height="24px" viewBox="0 0 24 24" version="1.1" xmlns="http://www.w3.org/2000/svg" xmlns:xlink="http://www.w3.org/1999/xlink">
    <title>icon-articles-24</title>
    <g id="Page-1" stroke="none" stroke-width="1" fill="none" fill-rule="evenodd">
        <g id="icon-articles-24" fill="#000000" fill-rule="nonzero">
            <path d="M3.75,21 C3.33578644,21 3,20.6642136 3,20.25 L3,20.25 L3,15 C3,14.995654 3.00003772,14.9913119 3.00011298,14.9869742 C3.00056631,14.9594804 3.00259453,14.9314452 3.00618758,14.9035731 C3.00787064,14.8908553 3.00983871,14.8782258 3.01212432,14.8656712 C3.01584548,14.8447611 3.02052894,14.8239634 3.02610598,14.8033571 C3.03079877,14.7865641 3.03594587,14.7699342 3.0416613,14.7535107 C3.04910366,14.7315574 3.05772875,14.7099936 3.0673933,14.6887875 C3.07276453,14.6774844 3.07836615,14.6659749 3.08426178,14.6546103 C3.09461919,14.6342561 3.10588181,14.6147805 3.11809115,14.5957363 C3.14721975,14.5505097 3.18113119,14.5082086 3.21966991,14.4696699 L3.21966991,14.4696699 L15.2196699,2.46966991 C15.5125631,2.1767767 15.9874369,2.1767767 16.2803301,2.46966991 L16.2803301,2.46966991 L21.5303301,7.71966991 C21.8232233,8.01256313 21.8232233,8.48743687 21.5303301,8.78033009 L21.5303301,8.78033009 L10.81,19.5 L20.25,19.5 C20.6296958,19.5 20.943491,19.7821539 20.9931534,20.1482294 L21,20.25 C21,20.6296958 20.7178461,20.943491 20.3517706,20.9931534 L20.25,21 Z M4.5,16.811 L4.5,19.5 L7.189,19.5 L4.5,16.811 Z M12.75,7.061 L4.811,15 L9,19.189 L16.939,11.25 L12.75,7.061 Z M15.75,4.061 L13.811,6 L18,10.189 L19.939,8.25 L15.75,4.061 Z" id="Combined-Shape"></path>
        </g>
    </g>
</svg>
