<?xml version="1.0" encoding="UTF-8"?>
<svg width="24px" height="24px" viewBox="0 0 24 24" version="1.1" xmlns="http://www.w3.org/2000/svg" xmlns:xlink="http://www.w3.org/1999/xlink">
    <title>icon-dribbble-24</title>
    <g id="Page-1" stroke="none" stroke-width="1" fill="none" fill-rule="evenodd">
        <g id="icon-dribbble-24" fill="#000000" fill-rule="nonzero">
            <path d="M12,3 C16.9697136,3 21,7.03028644 21,12 C21,16.9697136 16.9697136,21 12,21 C7.03028644,21 3,16.9697136 3,12 C3,7.03028644 7.03028644,3 12,3 Z M14.0905339,13.4182111 L13.981892,13.4523269 C11.4358237,14.2965686 9.18017761,15.8696584 7.49519047,17.9951907 C8.74937957,18.940321 10.3094878,19.5 12,19.5 C12.7473495,19.5 13.4692131,19.390617 14.1504503,19.1869912 L14.0623626,19.5958809 C14.3008142,18.5669262 14.4225,17.5120777 14.4225,16.4427 C14.4225,15.410461 14.3087988,14.3975454 14.0905339,13.4182111 Z M18.345,12.75 C17.3899683,12.75 16.4512512,12.8474033 15.5402232,13.0350499 C15.7920656,14.1377244 15.9225,15.2791973 15.9225,16.4427 C15.9225,17.1256593 15.8776418,17.8034854 15.7889824,18.4735862 C17.792365,17.2985297 19.2026282,15.218848 19.4582779,12.7955787 C19.0892605,12.7647416 18.7182848,12.75 18.345,12.75 Z M12.7107763,9.76674335 L12.4187198,9.91431264 C10.3515765,10.9302243 8.04801294,11.48205 5.655,11.48205 C5.2774311,11.48205 4.90012592,11.4677519 4.52166354,11.4394483 C4.5070137,11.6231459 4.5,11.8107559 4.5,12 C4.5,13.909441 5.21402749,15.6525152 6.38957018,16.9767103 C8.28752196,14.6170646 10.8251087,12.8821742 13.6830182,11.9721775 C13.4240558,11.2074838 13.0978887,10.4698962 12.7107763,9.76674335 Z M17.0284761,6.43595279 L17.0089829,6.45846347 C16.1153727,7.44160918 15.1056478,8.2982635 14.0068546,9.01228007 C14.4608555,9.83072079 14.8397964,10.6925894 15.1376395,11.5870127 C16.1780243,11.3652058 17.2519268,11.25 18.345,11.25 C18.7210319,11.25 19.0950934,11.2635281 19.4671452,11.2904474 C19.286937,9.37071643 18.381947,7.65995822 17.0284761,6.43595279 Z M8.72982508,5.2496143 L8.61455756,5.30609449 C6.7659392,6.24313426 5.35748417,7.92347381 4.78274141,9.95356418 C5.07492349,9.97267337 5.36500781,9.98205 5.655,9.98205 C7.87464479,9.98205 10.0082833,9.45632052 11.9127604,8.49035843 C11.0462792,7.25396792 9.9741369,6.15721275 8.72982508,5.2496143 Z M12,4.5 C11.4577139,4.5 10.9288465,4.55759163 10.4191821,4.66699061 C11.4936975,5.56533553 12.4327797,6.5985742 13.2167475,7.7355397 C14.1635334,7.11829477 15.0360712,6.38275074 15.8138911,5.54232818 C14.695862,4.87955406 13.3921486,4.5 12,4.5 Z" id="Combined-Shape"></path>
        </g>
    </g>
</svg>
