<?xml version="1.0" encoding="UTF-8"?>
<svg width="24px" height="24px" viewBox="0 0 24 24" version="1.1" xmlns="http://www.w3.org/2000/svg" xmlns:xlink="http://www.w3.org/1999/xlink">
    <title>icon-external-24</title>
    <g id="Page-1" stroke="none" stroke-width="1" fill="none" fill-rule="evenodd">
        <g id="icon-external-24">
            <polygon id="Fill-1" points="0 24 24 24 24 0 0 0"></polygon>
            <path d="M15.375,13.875 C15.375,14.289 15.039,14.625 14.625,14.625 C14.211,14.625 13.875,14.289 13.875,13.875 L13.875,11.1855 L9.906,15.156 C9.759,15.3015 9.567,15.375 9.375,15.375 C9.183,15.375 8.991,15.3015 8.844,15.156 C8.5515,14.862 8.5515,14.388 8.844,14.094 L12.8145,10.125 L10.125,10.125 C9.711,10.125 9.375,9.789 9.375,9.375 C9.375,8.961 9.711,8.625 10.125,8.625 L14.625,8.625 C14.7225,8.625 14.82,8.6445 14.9115,8.6835 C15.0945,8.7585 15.2415,8.9055 15.318,9.0885 C15.354,9.18 15.375,9.2775 15.375,9.375 L15.375,13.875 Z M18.894,5.106 C17.052,3.264 14.604,2.25 12,2.25 C9.396,2.25 6.948,3.264 5.106,5.106 C3.2655,6.9465 2.25,9.396 2.25,12 C2.25,14.604 3.2655,17.0535 5.106,18.894 C6.948,20.736 9.396,21.75 12,21.75 C14.604,21.75 17.052,20.736 18.894,18.894 C20.7345,17.0535 21.75,14.604 21.75,12 C21.75,9.396 20.7345,6.9465 18.894,5.106 L18.894,5.106 Z" id="Fill-2" fill="#000000"></path>
        </g>
    </g>
</svg>
