<?xml version="1.0" encoding="UTF-8"?>
<svg width="24px" height="24px" viewBox="0 0 24 24" version="1.1" xmlns="http://www.w3.org/2000/svg" xmlns:xlink="http://www.w3.org/1999/xlink">
    <title>icon-dribbble-24</title>
    <g id="Page-1" stroke="none" stroke-width="1" fill="none" fill-rule="evenodd">
        <g id="Helena-Zhang-2020" transform="translate(-24.000000, -2385.000000)">
            <g id="icon-dribbble-24" transform="translate(24.000000, 2385.000000)">
                <polygon id="Fill-1" points="0 24 24 24 24 0 0 0"></polygon>
                <path d="M21.75,12 C21.75,17.385 17.385,21.75 12,21.75 C6.615,21.75 2.25,17.385 2.25,12 C2.25,6.615 6.615,2.25 12,2.25 C17.385,2.25 21.75,6.615 21.75,12 Z" id="Stroke-2" stroke="#000000" stroke-width="1.5"></path>
                <path d="M8.23095,3.00435 C12.76995,6.11235 15.75045,11.33385 15.75045,17.24985 C15.75045,18.59985 15.59445,19.91535 15.30195,21.17685" id="Stroke-4" stroke="#000000" stroke-width="1.5"></path>
                <path d="M17.8374,4.19085 C14.6739,8.04135 9.8739,10.49985 4.4994,10.49985 C3.7839,10.49985 3.0789,10.45635 2.3859,10.37085" id="Stroke-6" stroke="#000000" stroke-width="1.5"></path>
                <path d="M21.7485,12.14505 C21.0135,12.05055 20.262,11.99955 19.5,11.99955 C13.71,11.99955 8.5875,14.85255 5.4585,19.22955" id="Stroke-8" stroke="#000000" stroke-width="1.5"></path>
            </g>
        </g>
    </g>
</svg>