<?xml version="1.0" encoding="UTF-8"?>
<svg width="24px" height="24px" viewBox="0 0 24 24" version="1.1" xmlns="http://www.w3.org/2000/svg" xmlns:xlink="http://www.w3.org/1999/xlink">
    <title>icon-design-24</title>
    <g id="Page-1" stroke="none" stroke-width="1" fill="none" fill-rule="evenodd">
        <g id="icon-design-24" fill="#000000" fill-rule="nonzero">
            <path d="M20.7689568,9.11035597 L20.7887841,9.15599837 C20.7949103,9.17160373 20.8004911,9.18736845 20.8055273,9.20326373 C20.8094348,9.2160956 20.8132404,9.22932176 20.8166814,9.24264054 C20.8222498,9.26376134 20.8266587,9.28459296 20.8301735,9.30553936 C20.8311175,9.31151052 20.8321599,9.31817781 20.8331127,9.3248594 C20.8469581,9.42322774 20.8413449,9.52301757 20.8166031,9.61874343 C20.8141983,9.6284349 20.8113539,9.63853192 20.808288,9.64859132 C20.8008113,9.67302693 20.7922318,9.69689695 20.7824128,9.72035905 C20.781359,9.72266319 20.7805162,9.72464012 20.7796643,9.72661483 L20.7658582,9.75709488 C20.7566761,9.7760824 20.7466507,9.79475553 20.7357839,9.81305709 L20.7282411,9.82512856 L12.6526544,22.8697811 C12.6322108,22.905786 12.6088739,22.939933 12.5829597,22.9719059 L12.6372411,22.8946286 C12.6109354,22.9371204 12.5814433,22.9758007 12.5493366,23.0106692 C12.5397749,23.0209202 12.5294862,23.0313737 12.5189006,23.0415198 C12.5034867,23.05674 12.4874013,23.0709664 12.4708508,23.0843777 C12.4635625,23.0896991 12.4561434,23.095465 12.4486151,23.1010927 C12.4307696,23.115075 12.412099,23.1277523 12.3929921,23.139493 C12.3810371,23.1462653 12.3697231,23.1528189 12.3582272,23.1590805 C12.3441121,23.1672372 12.3289975,23.1747829 12.3136851,23.181788 C12.2980896,23.188633 12.2824833,23.1951911 12.2666192,23.2012263 C12.2513965,23.2071249 12.2363242,23.2122523 12.2211273,23.2168902 C12.2036901,23.2222595 12.1853243,23.2271809 12.166695,23.2314089 C12.1548815,23.2339561 12.1432013,23.2362937 12.1314795,23.2383543 C12.1113013,23.2420804 12.0908963,23.2448354 12.0702484,23.2467534 C12.0565266,23.2478454 12.0427863,23.2487488 12.0290335,23.2492804 C12.0195837,23.2498115 12.0098139,23.25 12,23.25 L11.9709492,23.2493146 C11.9572681,23.248802 11.9435989,23.2479213 11.9299588,23.2466726 L12,23.25 C11.9555183,23.25 11.911941,23.2461276 11.869587,23.2387016 C11.8572274,23.2365735 11.8441901,23.2339765 11.8312191,23.2310345 C11.8130537,23.2267314 11.796025,23.2221445 11.7792472,23.2169849 C11.7638222,23.2126224 11.747754,23.2071705 11.7318578,23.2011626 C11.7172774,23.1950511 11.7033433,23.1892102 11.6896302,23.1829684 C11.6709142,23.1752922 11.6521813,23.1659079 11.6338059,23.1556923 C11.6269404,23.1508322 11.6199624,23.1467734 11.6130571,23.1426064 C11.564068,23.1143214 11.5180892,23.0790531 11.4760024,23.0377522 C11.4689933,23.0297506 11.4618237,23.0224661 11.4548043,23.0150383 C11.4449577,23.0055988 11.4353859,22.994804 11.4260671,22.9836591 L11.4153636,22.9698297 C11.4035128,22.9551019 11.3922071,22.9399169 11.3814772,22.9243054 L11.3623244,22.8953794 L3.2593244,9.84087944 L3.25249203,9.83002924 C3.24162267,9.81185206 3.23158602,9.79330568 3.22238376,9.77444631 L3.2593244,9.84087944 C3.23771354,9.80606283 3.21929975,9.77016523 3.20400271,9.73352976 C3.19525263,9.71270151 3.18738702,9.69100659 3.18054996,9.66905253 C3.17625097,9.65545162 3.1725551,9.64235804 3.16922871,9.62921376 C3.16490794,9.6116468 3.16106296,9.59362874 3.15788511,9.57551239 C3.15509302,9.56052213 3.15292529,9.54550455 3.15121852,9.53046835 C3.14540714,9.47777734 3.14497569,9.42482529 3.15008207,9.37227728 C3.15212118,9.35156816 3.15502423,9.33093702 3.15877266,9.31046864 C3.17533333,9.21905351 3.20897366,9.13019955 3.25979385,9.04879088 C3.26442743,9.0412996 3.26913188,9.03402112 3.27396857,9.02681726 C3.28384086,9.0122807 3.29443865,8.99769412 3.30562999,8.98341215 C3.31799837,8.96733862 3.33113522,8.95186882 3.34495803,8.93689035 C3.34636725,8.93563549 3.34845223,8.9333947 3.35055354,8.93116339 C5.04242831,7.13462179 5.99955,4.76953909 5.99955,2.24985 C5.99955,1.87015423 6.28170388,1.55635904 6.64777944,1.50669662 L6.74955,1.49985 L17.24955,1.49985 C17.6637636,1.49985 17.99955,1.83563644 17.99955,2.24985 C17.99955,4.76228294 18.9524235,7.12167499 20.6374304,8.91710363 C20.6583187,8.93924619 20.6756129,8.95999506 20.6916653,8.98150544 L20.6374304,8.91710363 C20.6643077,8.94574221 20.6885011,8.97593259 20.7100204,9.00736466 C20.7215258,9.02406961 20.7324631,9.04161845 20.7426355,9.05954436 C20.7498043,9.07208357 20.7563398,9.084366 20.7625083,9.09678026 L20.7689568,9.11035597 L20.7689568,9.11035597 Z M16.524,2.999 L7.474,2.999 L7.4482352,3.33038057 C7.22857197,5.63296401 6.31072941,7.78291885 4.83094387,9.52532267 L11.249535,19.87085 L11.2499662,13.4053835 C10.0111742,13.0862434 9.08158087,11.9952156 9.00509506,10.676209 L9,10.5 C9,8.84378644 10.3437864,7.5 12,7.5 C13.6562136,7.5 15,8.84378644 15,10.5 C15,11.8971127 14.0437742,13.0719051 12.7504148,13.4052853 L12.749535,19.86085 L19.1580113,9.51108276 C17.6836622,7.77009844 16.7693975,5.62446753 16.5506395,3.3274365 L16.524,2.999 Z M12,9 C11.1722136,9 10.5,9.67221356 10.5,10.5 C10.5,11.3277864 11.1722136,12 12,12 C12.8277864,12 13.5,11.3277864 13.5,10.5 C13.5,9.67221356 12.8277864,9 12,9 Z" id="Combined-Shape"></path>
        </g>
    </g>
</svg>
